{
    "asset": {
        "version": "2.0",
        "generator": "Open Asset Import Library (assimp v5.2.cf7d3637)"
    },
    "extensionsUsed": [
        "KHR_materials_volume",
        "FB_ngon_encoding"
    ],
    "accessors": [
        {
            "bufferView": 0,
            "byteOffset": 0,
            "componentType": 5126,
            "count": 112224,
            "type": "VEC3",
            "max": [
                26.159175872802736,
                30.14243507385254,
                61.0
            ],
            "min": [
                -26.1591739654541,
                -30.14243507385254,
                -4.857092221755011e-7
            ]
        },
        {
            "bufferView": 1,
            "byteOffset": 0,
            "componentType": 5126,
            "count": 112224,
            "type": "VEC3",
            "max": [
                0.9998086094856262,
                0.9994439482688904,
                0.9999932050704956
            ],
            "min": [
                -0.9998096823692322,
                -0.9999778866767883,
                -1.0
            ]
        },
        {
            "bufferView": 2,
            "byteOffset": 0,
            "componentType": 5125,
            "count": 112224,
            "type": "SCALAR",
            "max": [
                112223
            ],
            "min": [
                0
            ]
        }
    ],
    "buffers": [
        {
            "byteLength": 3142272,
            "uri": "result.bin"
        }
    ],
    "bufferViews": [
        {
            "buffer": 0,
            "byteOffset": 0,
            "byteLength": 1346688,
            "target": 34962
        },
        {
            "buffer": 0,
            "byteOffset": 1346688,
            "byteLength": 1346688,
            "target": 34962
        },
        {
            "buffer": 0,
            "byteOffset": 2693376,
            "byteLength": 448896,
            "target": 34963
        }
    ],
    "materials": [
        {
            "name": "DefaultMaterial",
            "pbrMetallicRoughness": {
                "metallicFactor": 0.0
            }
        }
    ],
    "meshes": [
        {
            "primitives": [
                {
                    "mode": 4,
                    "material": 0,
                    "indices": 2,
                    "attributes": {
                        "POSITION": 0,
                        "NORMAL": 1
                    }
                }
            ]
        }
    ],
    "nodes": [
        {
            "name": "<STL_BINARY>",
            "children": [
                1
            ]
        },
        {
            "name": "node",
            "mesh": 0
        }
    ],
    "scenes": [
        {
            "nodes": [
                0
            ]
        }
    ],
    "scene": 0
}